<?xml version="1.0" encoding="UTF-8" ?>
<svg version="1.1" width="128" height="128" xmlns="http://www.w3.org/2000/svg" shape-rendering="crispEdges">
<rect x="62" y="5" width="1" height="1" fill="#783704" />
<rect x="68" y="5" width="1" height="1" fill="#783704" />
<rect x="70" y="5" width="1" height="1" fill="#783704" />
<rect x="69" y="6" width="1" height="1" fill="#783704" />
<rect x="75" y="6" width="1" height="1" fill="#783704" />
<rect x="56" y="7" width="1" height="1" fill="#783704" />
<rect x="68" y="7" width="1" height="1" fill="#783704" />
<rect x="70" y="7" width="1" height="1" fill="#783704" />
<rect x="48" y="8" width="1" height="1" fill="#783704" />
<rect x="55" y="8" width="1" height="1" fill="#783704" />
<rect x="56" y="8" width="1" height="1" fill="#783704" />
<rect x="57" y="8" width="1" height="1" fill="#783704" />
<rect x="64" y="8" width="1" height="1" fill="#783704" />
<rect x="78" y="8" width="1" height="1" fill="#783704" />
<rect x="42" y="9" width="1" height="1" fill="#783704" />
<rect x="56" y="9" width="1" height="1" fill="#783704" />
<rect x="66" y="9" width="1" height="1" fill="#783704" />
<rect x="84" y="9" width="1" height="1" fill="#783704" />
<rect x="61" y="11" width="1" height="1" fill="#783704" />
<rect x="68" y="11" width="1" height="1" fill="#783704" />
<rect x="73" y="11" width="1" height="1" fill="#783704" />
<rect x="89" y="11" width="1" height="1" fill="#783704" />
<rect x="40" y="12" width="1" height="1" fill="#783704" />
<rect x="42" y="12" width="1" height="1" fill="#783704" />
<rect x="52" y="12" width="1" height="1" fill="#783704" />
<rect x="54" y="12" width="1" height="1" fill="#783704" />
<rect x="65" y="12" width="1" height="1" fill="#783704" />
<rect x="76" y="12" width="1" height="1" fill="#783704" />
<rect x="78" y="12" width="1" height="1" fill="#783704" />
<rect x="85" y="12" width="1" height="1" fill="#783704" />
<rect x="94" y="12" width="1" height="1" fill="#783704" />
<rect x="41" y="13" width="1" height="1" fill="#783704" />
<rect x="53" y="13" width="1" height="1" fill="#783704" />
<rect x="77" y="13" width="1" height="1" fill="#783704" />
<rect x="84" y="13" width="1" height="1" fill="#783704" />
<rect x="85" y="13" width="1" height="1" fill="#783704" />
<rect x="86" y="13" width="1" height="1" fill="#783704" />
<rect x="34" y="14" width="1" height="1" fill="#783704" />
<rect x="40" y="14" width="1" height="1" fill="#783704" />
<rect x="42" y="14" width="1" height="1" fill="#783704" />
<rect x="52" y="14" width="1" height="1" fill="#783704" />
<rect x="54" y="14" width="1" height="1" fill="#783704" />
<rect x="76" y="14" width="1" height="1" fill="#783704" />
<rect x="78" y="14" width="1" height="1" fill="#783704" />
<rect x="85" y="14" width="1" height="1" fill="#783704" />
<rect x="47" y="15" width="1" height="1" fill="#783704" />
<rect x="90" y="15" width="1" height="1" fill="#783704" />
<rect x="95" y="15" width="1" height="1" fill="#783704" />
<rect x="81" y="16" width="1" height="1" fill="#783704" />
<rect x="40" y="17" width="1" height="1" fill="#783704" />
<rect x="100" y="17" width="1" height="1" fill="#783704" />
<rect x="28" y="18" width="1" height="1" fill="#783704" />
<rect x="32" y="18" width="1" height="1" fill="#783704" />
<rect x="87" y="18" width="1" height="1" fill="#783704" />
<rect x="94" y="18" width="1" height="1" fill="#783704" />
<rect x="96" y="18" width="1" height="1" fill="#783704" />
<rect x="31" y="19" width="1" height="1" fill="#783704" />
<rect x="32" y="19" width="1" height="1" fill="#783704" />
<rect x="33" y="19" width="1" height="1" fill="#783704" />
<rect x="91" y="19" width="1" height="1" fill="#783704" />
<rect x="95" y="19" width="1" height="1" fill="#783704" />
<rect x="32" y="20" width="1" height="1" fill="#783704" />
<rect x="94" y="20" width="1" height="1" fill="#783704" />
<rect x="96" y="20" width="1" height="1" fill="#783704" />
<rect x="23" y="21" width="1" height="1" fill="#783704" />
<rect x="25" y="21" width="1" height="1" fill="#783704" />
<rect x="100" y="21" width="1" height="1" fill="#783704" />
<rect x="105" y="21" width="1" height="1" fill="#783704" />
<rect x="24" y="22" width="1" height="1" fill="#783704" />
<rect x="23" y="23" width="1" height="1" fill="#783704" />
<rect x="25" y="23" width="1" height="1" fill="#783704" />
<rect x="29" y="24" width="1" height="1" fill="#783704" />
<rect x="104" y="24" width="1" height="1" fill="#783704" />
<rect x="97" y="25" width="1" height="1" fill="#783704" />
<rect x="103" y="25" width="1" height="1" fill="#783704" />
<rect x="104" y="25" width="1" height="1" fill="#783704" />
<rect x="105" y="25" width="1" height="1" fill="#783704" />
<rect x="21" y="26" width="1" height="1" fill="#783704" />
<rect x="104" y="26" width="1" height="1" fill="#783704" />
<rect x="27" y="27" width="1" height="1" fill="#783704" />
<rect x="100" y="27" width="1" height="1" fill="#783704" />
<rect x="21" y="28" width="1" height="1" fill="#783704" />
<rect x="108" y="28" width="1" height="1" fill="#783704" />
<rect x="20" y="29" width="1" height="1" fill="#783704" />
<rect x="21" y="29" width="1" height="1" fill="#783704" />
<rect x="22" y="29" width="1" height="1" fill="#783704" />
<rect x="106" y="29" width="1" height="1" fill="#783704" />
<rect x="21" y="30" width="1" height="1" fill="#783704" />
<rect x="102" y="31" width="1" height="1" fill="#783704" />
<rect x="110" y="31" width="1" height="1" fill="#783704" />
<rect x="16" y="32" width="1" height="1" fill="#783704" />
<rect x="105" y="33" width="1" height="1" fill="#783704" />
<rect x="107" y="33" width="1" height="1" fill="#783704" />
<rect x="22" y="34" width="1" height="1" fill="#783704" />
<rect x="106" y="34" width="1" height="1" fill="#783704" />
<rect x="16" y="35" width="1" height="1" fill="#783704" />
<rect x="105" y="35" width="1" height="1" fill="#783704" />
<rect x="107" y="35" width="1" height="1" fill="#783704" />
<rect x="19" y="37" width="1" height="1" fill="#783704" />
<rect x="113" y="37" width="1" height="1" fill="#783704" />
<rect x="112" y="38" width="1" height="1" fill="#783704" />
<rect x="113" y="38" width="1" height="1" fill="#783704" />
<rect x="114" y="38" width="1" height="1" fill="#783704" />
<rect x="11" y="39" width="1" height="1" fill="#783704" />
<rect x="13" y="39" width="1" height="1" fill="#783704" />
<rect x="109" y="39" width="1" height="1" fill="#783704" />
<rect x="113" y="39" width="1" height="1" fill="#783704" />
<rect x="12" y="40" width="1" height="1" fill="#783704" />
<rect x="11" y="41" width="1" height="1" fill="#783704" />
<rect x="13" y="41" width="1" height="1" fill="#783704" />
<rect x="115" y="41" width="1" height="1" fill="#783704" />
<rect x="18" y="42" width="1" height="1" fill="#783704" />
<rect x="116" y="44" width="1" height="1" fill="#783704" />
<rect x="14" y="46" width="1" height="1" fill="#783704" />
<rect x="16" y="46" width="1" height="1" fill="#783704" />
<rect x="112" y="46" width="1" height="1" fill="#783704" />
<rect x="9" y="47" width="1" height="1" fill="#783704" />
<rect x="15" y="47" width="1" height="1" fill="#783704" />
<rect x="117" y="47" width="1" height="1" fill="#783704" />
<rect x="14" y="48" width="1" height="1" fill="#783704" />
<rect x="16" y="48" width="1" height="1" fill="#783704" />
<rect x="117" y="50" width="1" height="1" fill="#783704" />
<rect x="114" y="51" width="1" height="1" fill="#783704" />
<rect x="121" y="52" width="1" height="1" fill="#783704" />
<rect x="9" y="53" width="1" height="1" fill="#783704" />
<rect x="14" y="53" width="1" height="1" fill="#783704" />
<rect x="8" y="54" width="1" height="1" fill="#783704" />
<rect x="9" y="54" width="1" height="1" fill="#783704" />
<rect x="10" y="54" width="1" height="1" fill="#783704" />
<rect x="9" y="55" width="1" height="1" fill="#783704" />
<rect x="114" y="55" width="1" height="1" fill="#783704" />
<rect x="116" y="55" width="1" height="1" fill="#783704" />
<rect x="119" y="55" width="1" height="1" fill="#783704" />
<rect x="115" y="56" width="1" height="1" fill="#783704" />
<rect x="114" y="57" width="1" height="1" fill="#783704" />
<rect x="116" y="57" width="1" height="1" fill="#783704" />
<rect x="10" y="58" width="1" height="1" fill="#783704" />
<rect x="5" y="59" width="1" height="1" fill="#783704" />
<rect x="118" y="60" width="1" height="1" fill="#783704" />
<rect x="122" y="60" width="1" height="1" fill="#783704" />
<rect x="117" y="61" width="1" height="1" fill="#783704" />
<rect x="118" y="61" width="1" height="1" fill="#783704" />
<rect x="119" y="61" width="1" height="1" fill="#783704" />
<rect x="10" y="62" width="1" height="1" fill="#783704" />
<rect x="12" y="62" width="1" height="1" fill="#783704" />
<rect x="118" y="62" width="1" height="1" fill="#783704" />
<rect x="11" y="63" width="1" height="1" fill="#783704" />
<rect x="114" y="63" width="1" height="1" fill="#783704" />
<rect x="121" y="63" width="1" height="1" fill="#783704" />
<rect x="10" y="64" width="1" height="1" fill="#783704" />
<rect x="12" y="64" width="1" height="1" fill="#783704" />
<rect x="5" y="65" width="1" height="1" fill="#783704" />
<rect x="116" y="65" width="1" height="1" fill="#783704" />
<rect x="122" y="67" width="1" height="1" fill="#783704" />
<rect x="118" y="68" width="1" height="1" fill="#783704" />
<rect x="13" y="69" width="1" height="1" fill="#783704" />
<rect x="114" y="69" width="1" height="1" fill="#783704" />
<rect x="8" y="70" width="1" height="1" fill="#783704" />
<rect x="7" y="71" width="1" height="1" fill="#783704" />
<rect x="8" y="71" width="1" height="1" fill="#783704" />
<rect x="9" y="71" width="1" height="1" fill="#783704" />
<rect x="119" y="71" width="1" height="1" fill="#783704" />
<rect x="121" y="71" width="1" height="1" fill="#783704" />
<rect x="8" y="72" width="1" height="1" fill="#783704" />
<rect x="120" y="72" width="1" height="1" fill="#783704" />
<rect x="6" y="73" width="1" height="1" fill="#783704" />
<rect x="112" y="73" width="1" height="1" fill="#783704" />
<rect x="114" y="73" width="1" height="1" fill="#783704" />
<rect x="119" y="73" width="1" height="1" fill="#783704" />
<rect x="121" y="73" width="1" height="1" fill="#783704" />
<rect x="113" y="74" width="1" height="1" fill="#783704" />
<rect x="13" y="75" width="1" height="1" fill="#783704" />
<rect x="112" y="75" width="1" height="1" fill="#783704" />
<rect x="114" y="75" width="1" height="1" fill="#783704" />
<rect x="121" y="76" width="1" height="1" fill="#783704" />
<rect x="8" y="78" width="1" height="1" fill="#783704" />
<rect x="117" y="78" width="1" height="1" fill="#783704" />
<rect x="15" y="79" width="1" height="1" fill="#783704" />
<rect x="113" y="79" width="1" height="1" fill="#783704" />
<rect x="119" y="80" width="1" height="1" fill="#783704" />
<rect x="115" y="81" width="1" height="1" fill="#783704" />
<rect x="118" y="81" width="1" height="1" fill="#783704" />
<rect x="119" y="81" width="1" height="1" fill="#783704" />
<rect x="120" y="81" width="1" height="1" fill="#783704" />
<rect x="119" y="82" width="1" height="1" fill="#783704" />
<rect x="16" y="84" width="1" height="1" fill="#783704" />
<rect x="18" y="84" width="1" height="1" fill="#783704" />
<rect x="112" y="84" width="1" height="1" fill="#783704" />
<rect x="17" y="85" width="1" height="1" fill="#783704" />
<rect x="108" y="85" width="1" height="1" fill="#783704" />
<rect x="110" y="85" width="1" height="1" fill="#783704" />
<rect x="10" y="86" width="1" height="1" fill="#783704" />
<rect x="12" y="86" width="1" height="1" fill="#783704" />
<rect x="16" y="86" width="1" height="1" fill="#783704" />
<rect x="18" y="86" width="1" height="1" fill="#783704" />
<rect x="109" y="86" width="1" height="1" fill="#783704" />
<rect x="117" y="86" width="1" height="1" fill="#783704" />
<rect x="11" y="87" width="1" height="1" fill="#783704" />
<rect x="108" y="87" width="1" height="1" fill="#783704" />
<rect x="110" y="87" width="1" height="1" fill="#783704" />
<rect x="115" y="87" width="1" height="1" fill="#783704" />
<rect x="10" y="88" width="1" height="1" fill="#783704" />
<rect x="12" y="88" width="1" height="1" fill="#783704" />
<rect x="17" y="88" width="1" height="1" fill="#783704" />
<rect x="106" y="90" width="1" height="1" fill="#783704" />
<rect x="13" y="91" width="1" height="1" fill="#783704" />
<rect x="21" y="91" width="1" height="1" fill="#783704" />
<rect x="111" y="91" width="1" height="1" fill="#783704" />
<rect x="113" y="91" width="1" height="1" fill="#783704" />
<rect x="115" y="91" width="1" height="1" fill="#783704" />
<rect x="114" y="92" width="1" height="1" fill="#783704" />
<rect x="113" y="93" width="1" height="1" fill="#783704" />
<rect x="115" y="93" width="1" height="1" fill="#783704" />
<rect x="18" y="94" width="1" height="1" fill="#783704" />
<rect x="107" y="94" width="1" height="1" fill="#783704" />
<rect x="101" y="95" width="1" height="1" fill="#783704" />
<rect x="106" y="95" width="1" height="1" fill="#783704" />
<rect x="107" y="95" width="1" height="1" fill="#783704" />
<rect x="108" y="95" width="1" height="1" fill="#783704" />
<rect x="107" y="96" width="1" height="1" fill="#783704" />
<rect x="21" y="97" width="1" height="1" fill="#783704" />
<rect x="27" y="97" width="1" height="1" fill="#783704" />
<rect x="112" y="97" width="1" height="1" fill="#783704" />
<rect x="18" y="99" width="1" height="1" fill="#783704" />
<rect x="25" y="99" width="1" height="1" fill="#783704" />
<rect x="97" y="99" width="1" height="1" fill="#783704" />
<rect x="99" y="99" width="1" height="1" fill="#783704" />
<rect x="104" y="99" width="1" height="1" fill="#783704" />
<rect x="24" y="100" width="1" height="1" fill="#783704" />
<rect x="25" y="100" width="1" height="1" fill="#783704" />
<rect x="26" y="100" width="1" height="1" fill="#783704" />
<rect x="98" y="100" width="1" height="1" fill="#783704" />
<rect x="107" y="100" width="1" height="1" fill="#783704" />
<rect x="25" y="101" width="1" height="1" fill="#783704" />
<rect x="97" y="101" width="1" height="1" fill="#783704" />
<rect x="99" y="101" width="1" height="1" fill="#783704" />
<rect x="103" y="102" width="1" height="1" fill="#783704" />
<rect x="31" y="103" width="1" height="1" fill="#783704" />
<rect x="93" y="104" width="1" height="1" fill="#783704" />
<rect x="95" y="104" width="1" height="1" fill="#783704" />
<rect x="26" y="105" width="1" height="1" fill="#783704" />
<rect x="28" y="105" width="1" height="1" fill="#783704" />
<rect x="36" y="105" width="1" height="1" fill="#783704" />
<rect x="38" y="105" width="1" height="1" fill="#783704" />
<rect x="94" y="105" width="1" height="1" fill="#783704" />
<rect x="27" y="106" width="1" height="1" fill="#783704" />
<rect x="37" y="106" width="1" height="1" fill="#783704" />
<rect x="93" y="106" width="1" height="1" fill="#783704" />
<rect x="95" y="106" width="1" height="1" fill="#783704" />
<rect x="102" y="106" width="1" height="1" fill="#783704" />
<rect x="104" y="106" width="1" height="1" fill="#783704" />
<rect x="26" y="107" width="1" height="1" fill="#783704" />
<rect x="28" y="107" width="1" height="1" fill="#783704" />
<rect x="36" y="107" width="1" height="1" fill="#783704" />
<rect x="38" y="107" width="1" height="1" fill="#783704" />
<rect x="90" y="107" width="1" height="1" fill="#783704" />
<rect x="103" y="107" width="1" height="1" fill="#783704" />
<rect x="102" y="108" width="1" height="1" fill="#783704" />
<rect x="104" y="108" width="1" height="1" fill="#783704" />
<rect x="95" y="109" width="1" height="1" fill="#783704" />
<rect x="98" y="109" width="1" height="1" fill="#783704" />
<rect x="32" y="110" width="1" height="1" fill="#783704" />
<rect x="43" y="110" width="1" height="1" fill="#783704" />
<rect x="79" y="110" width="1" height="1" fill="#783704" />
<rect x="84" y="110" width="1" height="1" fill="#783704" />
<rect x="89" y="110" width="1" height="1" fill="#783704" />
<rect x="88" y="111" width="1" height="1" fill="#783704" />
<rect x="89" y="111" width="1" height="1" fill="#783704" />
<rect x="90" y="111" width="1" height="1" fill="#783704" />
<rect x="37" y="112" width="1" height="1" fill="#783704" />
<rect x="73" y="112" width="1" height="1" fill="#783704" />
<rect x="75" y="112" width="1" height="1" fill="#783704" />
<rect x="81" y="112" width="1" height="1" fill="#783704" />
<rect x="89" y="112" width="1" height="1" fill="#783704" />
<rect x="36" y="113" width="1" height="1" fill="#783704" />
<rect x="37" y="113" width="1" height="1" fill="#783704" />
<rect x="38" y="113" width="1" height="1" fill="#783704" />
<rect x="46" y="113" width="1" height="1" fill="#783704" />
<rect x="49" y="113" width="1" height="1" fill="#783704" />
<rect x="51" y="113" width="1" height="1" fill="#783704" />
<rect x="55" y="113" width="1" height="1" fill="#783704" />
<rect x="61" y="113" width="1" height="1" fill="#783704" />
<rect x="74" y="113" width="1" height="1" fill="#783704" />
<rect x="37" y="114" width="1" height="1" fill="#783704" />
<rect x="50" y="114" width="1" height="1" fill="#783704" />
<rect x="68" y="114" width="1" height="1" fill="#783704" />
<rect x="73" y="114" width="1" height="1" fill="#783704" />
<rect x="75" y="114" width="1" height="1" fill="#783704" />
<rect x="44" y="115" width="1" height="1" fill="#783704" />
<rect x="49" y="115" width="1" height="1" fill="#783704" />
<rect x="51" y="115" width="1" height="1" fill="#783704" />
<rect x="65" y="115" width="1" height="1" fill="#783704" />
<rect x="84" y="115" width="1" height="1" fill="#783704" />
<rect x="93" y="115" width="1" height="1" fill="#783704" />
<rect x="53" y="116" width="1" height="1" fill="#783704" />
<rect x="58" y="116" width="1" height="1" fill="#783704" />
<rect x="80" y="116" width="1" height="1" fill="#783704" />
<rect x="86" y="116" width="1" height="1" fill="#783704" />
<rect x="57" y="117" width="1" height="1" fill="#783704" />
<rect x="58" y="117" width="1" height="1" fill="#783704" />
<rect x="59" y="117" width="1" height="1" fill="#783704" />
<rect x="72" y="117" width="1" height="1" fill="#783704" />
<rect x="58" y="118" width="1" height="1" fill="#783704" />
<rect x="63" y="118" width="1" height="1" fill="#783704" />
<rect x="78" y="119" width="1" height="1" fill="#783704" />
<rect x="51" y="120" width="1" height="1" fill="#783704" />
<rect x="65" y="120" width="1" height="1" fill="#783704" />
<rect x="67" y="120" width="1" height="1" fill="#783704" />
<rect x="77" y="120" width="1" height="1" fill="#783704" />
<rect x="78" y="120" width="1" height="1" fill="#783704" />
<rect x="79" y="120" width="1" height="1" fill="#783704" />
<rect x="66" y="121" width="1" height="1" fill="#783704" />
<rect x="74" y="121" width="1" height="1" fill="#783704" />
<rect x="78" y="121" width="1" height="1" fill="#783704" />
<rect x="58" y="122" width="1" height="1" fill="#783704" />
<rect x="65" y="122" width="1" height="1" fill="#783704" />
<rect x="67" y="122" width="1" height="1" fill="#783704" />
<rect x="71" y="122" width="1" height="1" fill="#783704" />
</svg>